<svg xmlns="http://www.w3.org/2000/svg" viewBox="0 0 24 24" fill="currentColor">
  <path d="M0 0h24v24H0V0z" fill="none"/>
  <path d="M22 11h-2v2h2v-2zm-4.66-3.11L14.5 10.73 16.27 12.5l2.84-2.84c.39-.39.39-1.02 0-1.41l-1.41-1.41c-.39-.39-1.02-.39-1.41 0zM12 2c-5.52 0-10 4.48-10 10s4.48 10 10 10 10-4.48 10-10S17.52 2 12 2zm0 18c-4.41 0-8-3.59-8-8s3.59-8 8-8 8 3.59 8 8-3.59 8-8 8zM11 16H9v2H7v-2H5v-2h2v-2h2v2h2v2zm1.41-10.59L11 6.83 9.59 8.24 8.17 6.83 6.76 8.24 5.34 6.83 3.93 8.24 5.34 9.66 6.76 11.07 8.17 9.66 9.59 11.07 11 9.66 12.41 11.07l1.41-1.41L12.41 8.24 13.83 6.83 15.24 8.24l1.41-1.41L15.24 5.41l1.41-1.41-1.41-1.41L15.24 4l-1.41-1.41L12.41 4 11 2.59z"/>
</svg>